<?xml version="1.0" encoding="UTF-8" standalone="no"?>
<!-- Created with Inkscape (http://www.inkscape.org/) -->

<svg
   width="230.75mm"
   height="110.75mm"
   viewBox="0 0 230.74999 110.75"
   version="1.1"
   id="svg1"
   xml:space="preserve"
   xmlns:xlink="http://www.w3.org/1999/xlink"
   xmlns="http://www.w3.org/2000/svg"
   xmlns:svg="http://www.w3.org/2000/svg"><defs
     id="defs1"><linearGradient
       id="linearGradient332"><stop
         style="stop-color:#e9e7c4;stop-opacity:1"
         offset="0"
         id="stop329" /><stop
         style="stop-color:#efba00;stop-opacity:1;"
         offset="0.40000001"
         id="stop331" /><stop
         style="stop-color:#ee8019;stop-opacity:1"
         offset="1"
         id="stop332" /></linearGradient><linearGradient
       id="linearGradient315"><stop
         style="stop-color:#efb403;stop-opacity:1;"
         offset="0"
         id="stop312" /><stop
         style="stop-color:#efb502;stop-opacity:1;"
         offset="0.30019164"
         id="stop313" /><stop
         style="stop-color:#efba00;stop-opacity:1;"
         offset="0.37017253"
         id="stop314" /><stop
         style="stop-color:#ee8019;stop-opacity:1"
         offset="1"
         id="stop315" /></linearGradient><linearGradient
       id="linearGradient307"><stop
         style="stop-color:#ffffff;stop-opacity:1"
         offset="0"
         id="stop307" /><stop
         style="stop-color:#f0bc00;stop-opacity:1"
         offset="0.20937453"
         id="stop309" /><stop
         style="stop-color:#ee990e;stop-opacity:1"
         offset="0.56957108"
         id="stop310" /><stop
         style="stop-color:#edc73a;stop-opacity:1"
         offset="1"
         id="stop308" /></linearGradient><linearGradient
       id="linearGradient294"><stop
         style="stop-color:#efb403;stop-opacity:1;"
         offset="0"
         id="stop298" /><stop
         style="stop-color:#efba00;stop-opacity:1;"
         offset="0.60000002"
         id="stop300" /><stop
         style="stop-color:#ee8019;stop-opacity:1"
         offset="1"
         id="stop296" /></linearGradient><radialGradient
       xlink:href="#linearGradient294"
       id="radialGradient315-9-2"
       cx="76.303848"
       cy="273.46988"
       fx="76.303848"
       fy="273.46988"
       r="1.8301229"
       gradientTransform="matrix(6.4008205e-6,0.54160818,-1.2473516,1.474142e-5,418.27553,231.55236)"
       gradientUnits="userSpaceOnUse" /><radialGradient
       xlink:href="#linearGradient332"
       id="radialGradient310-9-6"
       cx="76.990105"
       cy="265.64838"
       fx="76.990105"
       fy="265.64838"
       r="1.865261"
       gradientTransform="matrix(-2.9161201e-6,1.2206311,-1.539767,-2.2251686e-6,486.14841,171.57224)"
       gradientUnits="userSpaceOnUse" /><linearGradient
       xlink:href="#linearGradient307"
       id="linearGradient6"
       gradientUnits="userSpaceOnUse"
       x1="74.633003"
       y1="269.61639"
       x2="79.291229"
       y2="270.58319" /><linearGradient
       xlink:href="#linearGradient315"
       id="linearGradient7"
       gradientUnits="userSpaceOnUse"
       x1="74.063438"
       y1="272.28122"
       x2="79.931252"
       y2="272.28122" /><linearGradient
       xlink:href="#linearGradient315"
       id="linearGradient8"
       gradientUnits="userSpaceOnUse"
       x1="74.063438"
       y1="272.28122"
       x2="79.931252"
       y2="272.28122" /></defs><g
     id="layer1"
     transform="translate(122.89217,-827.19474)"><g
       id="g10"><rect
         style="fill:none;stroke:none;stroke-width:0.887;stroke-linecap:square;stroke-linejoin:round;paint-order:markers fill stroke"
         id="rect5"
         width="285.75"
         height="285.75"
         x="-151.92764"
         y="737.03198"
         rx="0"
         ry="0" /><g
         id="g692-6-3"
         transform="matrix(9.5749685,0,0,9.5749685,-835.17044,-1689.7643)"
         style="stroke-width:1.1993"><g
           id="text241-5-4"
           style="font-size:3.28681px;line-height:1.1;font-family:'Noto SaNS';-inkscape-font-specification:'Noto SaNS';letter-spacing:0px;word-spacing:0px;white-space:pre;stroke-width:0.349046;stroke-linecap:square;paint-order:stroke markers fill"
           aria-label="Wiki&#10;Loves&#10;Ramadan"><path
             style="font-weight:bold;stroke-width:0.349046"
             d="m 85.730156,263.92476 -0.598199,2.34679 h -0.565331 l -0.318821,-1.23256 q -0.0099,-0.0362 -0.02629,-0.10846 -0.01315,-0.0723 -0.03287,-0.15777 -0.01643,-0.0855 -0.02958,-0.16105 -0.01315,-0.0789 -0.01972,-0.12162 -0.0033,0.0427 -0.01972,0.12162 -0.01315,0.0756 -0.02958,0.16105 -0.01643,0.0822 -0.03287,0.15777 -0.01643,0.0723 -0.02629,0.11175 l -0.315534,1.22927 H 83.15002 l -0.5982,-2.34679 h 0.489735 l 0.2991,1.28186 q 0.01315,0.0559 0.02958,0.13805 0.01643,0.0789 0.03287,0.16762 0.01643,0.0855 0.02958,0.16763 0.01643,0.0822 0.02301,0.14133 0.0066,-0.0625 0.01972,-0.14133 0.01315,-0.0822 0.02958,-0.16434 0.01643,-0.0855 0.02958,-0.15777 0.01643,-0.0756 0.02958,-0.11832 l 0.341828,-1.31473 h 0.470014 l 0.341828,1.31473 q 0.0099,0.0427 0.02629,0.11832 0.01643,0.0723 0.03287,0.15777 0.01643,0.0855 0.02958,0.16763 0.01315,0.0789 0.01972,0.13804 0.0099,-0.0822 0.02958,-0.19392 0.01972,-0.11504 0.04273,-0.23008 0.02629,-0.11503 0.04273,-0.19063 l 0.2991,-1.28186 z m 0.739536,0.55219 v 1.7946 h -0.496309 v -1.7946 z m -0.246511,-0.70667 q 0.108465,0 0.187348,0.0526 0.08217,0.0493 0.08217,0.19064 0,0.13476 -0.08217,0.18735 -0.07888,0.0526 -0.187348,0.0526 -0.111752,0 -0.190635,-0.0526 -0.07888,-0.0526 -0.07888,-0.18735 0,-0.14134 0.07888,-0.19064 0.07888,-0.0526 0.190635,-0.0526 z m 1.23584,1.12081 q 0,0.10189 -0.0099,0.20378 -0.0066,0.0986 -0.01643,0.20049 h 0.0066 q 0.03287,-0.046 0.06574,-0.092 0.03615,-0.046 0.07231,-0.092 0.03615,-0.046 0.0756,-0.0887 l 0.502881,-0.54561 h 0.552185 l -0.713238,0.77897 0.755966,1.01563 h -0.565331 l -0.516029,-0.72639 -0.210356,0.16763 v 0.55876 h -0.489735 v -2.49798 h 0.489735 z m 2.031251,-0.41414 v 1.7946 h -0.496308 v -1.7946 z m -0.24651,-0.70667 q 0.108464,0 0.187348,0.0526 0.08217,0.0493 0.08217,0.19064 0,0.13476 -0.08217,0.18735 -0.07888,0.0526 -0.187348,0.0526 -0.111752,0 -0.190635,-0.0526 -0.07888,-0.0526 -0.07888,-0.18735 0,-0.14134 0.07888,-0.19064 0.07888,-0.0526 0.190635,-0.0526 z"
             id="path73" /><path
             style="font-weight:bold;stroke-width:0.349046"
             d="m 82.83119,269.88704 v -2.34679 h 0.502882 v 1.93265 h 0.949888 v 0.41414 z m 3.454437,-0.90059 q 0,0.2235 -0.06245,0.3977 -0.05916,0.17421 -0.174201,0.29253 -0.111752,0.11833 -0.272805,0.18078 -0.161054,0.0624 -0.364836,0.0624 -0.190635,0 -0.348402,-0.0624 -0.157767,-0.0625 -0.272805,-0.18078 -0.115039,-0.11832 -0.180775,-0.29253 -0.06574,-0.1742 -0.06574,-0.3977 0,-0.2991 0.105178,-0.50617 0.105178,-0.20707 0.302386,-0.31225 0.197209,-0.10846 0.470014,-0.10846 0.253085,0 0.447006,0.10846 0.193922,0.10518 0.305674,0.31225 0.111751,0.20707 0.111751,0.50617 z m -1.23584,0 q 0,0.1742 0.03616,0.2991 0.03944,0.1249 0.118325,0.19064 0.08217,0.0657 0.213642,0.0657 0.128186,0 0.20707,-0.0657 0.08217,-0.0657 0.118325,-0.19064 0.03616,-0.1249 0.03616,-0.2991 0,-0.17749 -0.03944,-0.2991 -0.03615,-0.12161 -0.115038,-0.18406 -0.07888,-0.0657 -0.210356,-0.0657 -0.190635,0 -0.279379,0.14134 -0.08546,0.14133 -0.08546,0.40756 z m 2.011526,0.90059 -0.683657,-1.7946 h 0.519316 l 0.335255,1.05835 q 0.01315,0.0362 0.0263,0.0887 0.01643,0.0526 0.02958,0.10847 0.01315,0.0559 0.01643,0.0986 h 0.01315 q 0.0033,-0.0427 0.01643,-0.0953 0.01315,-0.0559 0.02958,-0.10847 0.01643,-0.0526 0.02958,-0.0887 l 0.341828,-1.06164 h 0.519316 l -0.683657,1.7946 z m 2.198873,-1.82747 q 0.249798,0 0.430572,0.0953 0.180775,0.092 0.276092,0.27609 0.0986,0.18077 0.0986,0.44372 v 0.23994 h -1.15367 q 0.0066,0.20378 0.124899,0.3221 0.118325,0.11504 0.338541,0.11504 0.167628,0 0.305674,-0.0329 0.138046,-0.0329 0.282665,-0.0986 v 0.37141 q -0.131472,0.0657 -0.279378,0.0953 -0.14462,0.0329 -0.36155,0.0329 -0.266231,0 -0.4733,-0.0986 -0.203782,-0.0986 -0.322108,-0.30239 -0.118325,-0.20707 -0.118325,-0.51603 0,-0.31553 0.105178,-0.5226 0.108465,-0.21035 0.2991,-0.31553 0.193922,-0.10518 0.447006,-0.10518 z m 0.01315,0.35169 q -0.147906,0 -0.239937,0.0953 -0.09203,0.092 -0.108465,0.27609 h 0.677083 q 0,-0.10847 -0.03615,-0.19064 -0.03616,-0.0822 -0.111751,-0.13147 -0.07231,-0.0493 -0.180775,-0.0493 z m 2.455248,0.9466 q 0,0.17091 -0.08217,0.2991 -0.07888,0.1249 -0.243224,0.19392 -0.16434,0.069 -0.417424,0.069 -0.190635,0 -0.335255,-0.0263 -0.14462,-0.023 -0.279379,-0.0789 v -0.41085 q 0.14462,0.069 0.312247,0.10846 0.167627,0.0394 0.289239,0.0394 0.151194,0 0.21693,-0.0427 0.06902,-0.0427 0.06902,-0.11504 0,-0.0493 -0.03615,-0.0887 -0.03287,-0.0394 -0.121612,-0.0822 -0.08546,-0.0427 -0.246511,-0.10518 -0.161053,-0.0657 -0.269518,-0.13476 -0.108465,-0.0723 -0.164341,-0.17091 -0.05259,-0.0986 -0.05259,-0.24651 0,-0.24651 0.193922,-0.3747 0.197209,-0.13147 0.519316,-0.13147 0.174201,0 0.322107,0.0361 0.151194,0.0362 0.305674,0.1019 l -0.14462,0.33854 q -0.124899,-0.0559 -0.256371,-0.092 -0.131472,-0.0362 -0.233364,-0.0362 -0.111751,0 -0.1742,0.0362 -0.06245,0.0329 -0.06245,0.0953 0,0.046 0.03287,0.0822 0.03616,0.0362 0.121612,0.0756 0.08874,0.0394 0.246511,0.10189 0.161054,0.0625 0.269518,0.13476 0.111752,0.069 0.164341,0.17092 0.05588,0.0986 0.05588,0.25308 z"
             id="path93" /><path
             style="font-weight:bold;stroke-width:0.349046"
             d="m 83.551001,271.15575 q 0.308961,0 0.512743,0.0789 0.203782,0.0756 0.302386,0.22679 0.101891,0.15119 0.101891,0.37798 0,0.15777 -0.05587,0.27938 -0.05588,0.12161 -0.151194,0.20707 -0.09532,0.0855 -0.216929,0.14133 l 0.667222,1.03535 h -0.575191 l -0.522603,-0.90059 h -0.279379 v 0.90059 H 82.83119 v -2.34678 z m -0.0099,0.39113 h -0.207069 v 0.66722 h 0.207069 q 0.200495,0 0.30896,-0.0822 0.108465,-0.0822 0.108465,-0.26952 0,-0.10518 -0.04602,-0.1742 -0.04273,-0.069 -0.13476,-0.10518 -0.09203,-0.0362 -0.23665,-0.0362 z m 2.208737,0.12818 q 0.338541,0 0.516029,0.16105 0.177488,0.15777 0.177488,0.47002 v 1.1964 H 86.09828 l -0.09532,-0.24323 h -0.01315 q -0.0756,0.0953 -0.157767,0.15777 -0.07888,0.0624 -0.184061,0.0887 -0.105178,0.0296 -0.256372,0.0296 -0.157766,0 -0.282665,-0.0592 -0.124899,-0.0625 -0.197209,-0.18735 -0.07231,-0.12489 -0.07231,-0.31553 0,-0.28266 0.203783,-0.424 0.203782,-0.14133 0.608059,-0.15776 l 0.2991,-0.01 v -0.0559 q 0,-0.16105 -0.07231,-0.2235 -0.07231,-0.0657 -0.203782,-0.0657 -0.121612,0 -0.249798,0.0394 -0.128185,0.0394 -0.253084,0.0953 l -0.14462,-0.33854 q 0.141333,-0.0723 0.322108,-0.11504 0.184061,-0.0427 0.400991,-0.0427 z m 0.01315,1.00576 q -0.233364,0.007 -0.325394,0.0756 -0.09203,0.069 -0.09203,0.19392 0,0.11504 0.06245,0.17092 0.06574,0.0526 0.174201,0.0526 0.15448,0 0.259658,-0.092 0.108465,-0.092 0.108465,-0.26295 V 272.671 Z m 3.260518,-1.00576 q 0.308961,0 0.466727,0.15448 0.157767,0.15448 0.157767,0.50288 v 1.17011 h -0.493021 v -1.04521 q 0,-0.20707 -0.06902,-0.29581 -0.06902,-0.092 -0.207069,-0.092 -0.190635,0 -0.269519,0.14133 -0.07888,0.13805 -0.07888,0.39442 v 0.8973 h -0.496308 v -1.04521 q 0,-0.13476 -0.02958,-0.22021 -0.02958,-0.0855 -0.08874,-0.1249 -0.05916,-0.0427 -0.151193,-0.0427 -0.134759,0 -0.213642,0.069 -0.0756,0.069 -0.108465,0.2005 -0.02958,0.13147 -0.02958,0.3221 v 0.84143 h -0.496309 v -1.7946 h 0.38127 l 0.07231,0.23008 h 0.01643 q 0.05259,-0.0822 0.128186,-0.14134 0.07888,-0.0592 0.180774,-0.0887 0.101891,-0.0329 0.22679,-0.0329 0.200496,0 0.331968,0.069 0.134759,0.069 0.210356,0.2005 h 0.01643 q 0.08874,-0.13476 0.230076,-0.2005 0.141333,-0.069 0.312247,-0.069 z m 1.899778,0 q 0.338541,0 0.516029,0.16105 0.177488,0.15777 0.177488,0.47002 v 1.1964 h -0.345115 l -0.09532,-0.24323 h -0.01315 q -0.0756,0.0953 -0.157767,0.15777 -0.07888,0.0624 -0.184061,0.0887 -0.105178,0.0296 -0.256372,0.0296 -0.157766,0 -0.282665,-0.0592 -0.124899,-0.0625 -0.197209,-0.18735 -0.07231,-0.12489 -0.07231,-0.31553 0,-0.28266 0.203783,-0.424 0.203782,-0.14133 0.608059,-0.15776 l 0.2991,-0.01 v -0.0559 q 0,-0.16105 -0.07231,-0.2235 -0.07231,-0.0657 -0.203782,-0.0657 -0.121612,0 -0.249797,0.0394 -0.128186,0.0394 -0.253085,0.0953 l -0.144619,-0.33854 q 0.141332,-0.0723 0.322107,-0.11504 0.184061,-0.0427 0.400991,-0.0427 z m 0.01315,1.00576 q -0.233364,0.007 -0.325394,0.0756 -0.09203,0.069 -0.09203,0.19392 0,0.11504 0.06245,0.17092 0.06574,0.0526 0.1742,0.0526 0.154481,0 0.259658,-0.092 0.108465,-0.092 0.108465,-0.26295 V 272.671 Z m 1.742013,0.85458 q -0.295813,0 -0.486448,-0.23337 -0.187348,-0.23665 -0.187348,-0.69351 0,-0.46345 0.190635,-0.69681 0.190634,-0.23665 0.499595,-0.23665 0.128185,0 0.220216,0.0362 0.09532,0.0329 0.16434,0.092 0.06902,0.0592 0.118326,0.13476 h 0.01643 q -0.0099,-0.0592 -0.01972,-0.16434 -0.0066,-0.10847 -0.0066,-0.19721 v -0.57191 h 0.499595 v 2.49798 h -0.38127 l -0.0986,-0.23337 h -0.01972 q -0.04601,0.0756 -0.115038,0.13476 -0.06902,0.0592 -0.167628,0.0953 -0.09532,0.0362 -0.226789,0.0362 z m 0.1742,-0.39771 q 0.203783,0 0.285953,-0.11504 0.08217,-0.11832 0.08217,-0.35826 v -0.0526 q 0,-0.25966 -0.07888,-0.3977 -0.07888,-0.13805 -0.292526,-0.13805 -0.161054,0 -0.253085,0.13805 -0.08874,0.13804 -0.08874,0.40099 0,0.26294 0.08874,0.39442 0.09203,0.12818 0.256371,0.12818 z m 2.116706,-1.46263 q 0.338541,0 0.516029,0.16105 0.177488,0.15777 0.177488,0.47002 v 1.1964 h -0.345115 l -0.09532,-0.24323 h -0.01315 q -0.0756,0.0953 -0.157767,0.15777 -0.07888,0.0624 -0.184061,0.0887 -0.105178,0.0296 -0.256371,0.0296 -0.157767,0 -0.282666,-0.0592 -0.124899,-0.0625 -0.197208,-0.18735 -0.07231,-0.12489 -0.07231,-0.31553 0,-0.28266 0.203782,-0.424 0.203782,-0.14133 0.60806,-0.15776 l 0.299099,-0.01 v -0.0559 q 0,-0.16105 -0.07231,-0.2235 -0.07231,-0.0657 -0.203783,-0.0657 -0.121612,0 -0.249797,0.0394 -0.128186,0.0394 -0.253085,0.0953 l -0.144619,-0.33854 q 0.141333,-0.0723 0.322107,-0.11504 0.184062,-0.0427 0.400991,-0.0427 z m 0.01315,1.00576 q -0.233363,0.007 -0.325394,0.0756 -0.09203,0.069 -0.09203,0.19392 0,0.11504 0.06245,0.17092 0.06574,0.0526 0.174201,0.0526 0.15448,0 0.259658,-0.092 0.108464,-0.092 0.108464,-0.26295 V 272.671 Z m 2.179159,-1.00576 q 0.295812,0 0.466727,0.15448 0.170914,0.15448 0.170914,0.50288 v 1.17011 h -0.493022 v -1.04521 q 0,-0.19392 -0.07231,-0.28924 -0.06902,-0.0986 -0.216929,-0.0986 -0.223503,0 -0.305673,0.15448 -0.07888,0.15119 -0.07888,0.43714 v 0.84143 h -0.496308 v -1.7946 h 0.38127 l 0.06902,0.23994 h 0.01972 q 0.05916,-0.0888 0.141333,-0.14791 0.08546,-0.0625 0.187348,-0.092 0.105178,-0.0329 0.22679,-0.0329 z"
             id="path94" /></g><path
           id="path267-2-0"
           style="color:#000000;fill:url(#radialGradient315-9-2);fill-opacity:1;stroke-width:1.1993;stroke-linecap:square;stroke-linejoin:round;-inkscape-stroke:none;paint-order:markers fill stroke"
           d="m 75.386891,272.93537 a 0.06615262,0.06615262 0 0 0 -0.06666,0.0667 c 0,0.31457 0.24021,0.57413 0.541053,0.57413 h 2.578137 c 0.300843,0 0.541052,-0.25956 0.541052,-0.57413 a 0.06615262,0.06615262 0 0 0 -0.06666,-0.0667 h -0.8785 -1.771468 z" /><path
           id="path293-6-8"
           style="color:#000000;fill:url(#linearGradient6);fill-opacity:1;stroke-width:1.1993;stroke-linecap:round;stroke-linejoin:round;-inkscape-stroke:none;paint-order:markers fill stroke"
           d="m 75.306793,268.42402 a 0.06615262,0.06615262 0 0 0 -0.06666,0.0661 v 3.3476 a 0.06615262,0.06615262 0 0 0 0.06666,0.0667 h 0.681612 a 0.06615262,0.06615262 0 0 0 0.06615,-0.0667 v -3.3476 a 0.06615262,0.06615262 0 0 0 -0.06615,-0.0661 z m 1.118794,0 a 0.06615262,0.06615262 0 0 0 -0.06614,0.0661 v 3.3476 a 0.06615262,0.06615262 0 0 0 0.06614,0.0667 h 1.3224 a 0.06615262,0.06615262 0 0 0 0.06666,-0.0667 v -3.3476 a 0.06615262,0.06615262 0 0 0 -0.06666,-0.0661 z m 1.7601,0 a 0.06615262,0.06615262 0 0 0 -0.06666,0.0661 v 3.3476 a 0.06615262,0.06615262 0 0 0 0.06666,0.0667 h 0.679545 a 0.06615262,0.06615262 0 0 0 0.06666,-0.0667 v -3.3476 a 0.06615262,0.06615262 0 0 0 -0.06666,-0.0661 z" /><path
           id="path277-6-7"
           style="color:#000000;fill:url(#radialGradient310-9-6);fill-opacity:1;stroke-width:1.1993;stroke-linecap:square;stroke-linejoin:round;-inkscape-stroke:none;paint-order:markers fill stroke"
           d="m 77.289101,263.17162 c -0.110375,-0.001 -0.220933,0.0209 -0.322461,0.0646 -0.403571,0.17368 -0.591012,0.6452 -0.419613,1.05265 0.09311,0.22135 0.273865,0.37898 0.484208,0.44907 v 0.42064 c -0.842621,0.47858 -1.279576,0.80093 -1.507918,1.11466 -0.236314,0.32468 -0.238229,0.63542 -0.238229,1.05317 a 0.0660066,0.0660066 0 0 0 0.06666,0.0641 h 0.939478 0.859379 0.859379 0.939477 a 0.0660066,0.0660066 0 0 0 0.06615,-0.0641 c 0,-0.41775 -0.0019,-0.72849 -0.238228,-1.05317 -0.228156,-0.31348 -0.666526,-0.63569 -1.507919,-1.11363 v -0.38137 c 0.106965,0.002 0.215816,-0.0186 0.320394,-0.0636 0.15703,-0.068 0.277596,-0.1954 0.363286,-0.34365 0.0066,-0.007 0.01695,-0.01 0.02325,-0.0176 l -0.0021,-0.002 c 0.0022,-0.004 0.0076,-0.006 0.0098,-0.01 a 0.0660066,0.0660066 0 0 0 -0.109038,-0.0718 c -0.0569,0.0693 -0.129173,0.12458 -0.21084,0.16019 -0.287226,0.12363 -0.615905,-0.0115 -0.738456,-0.30282 -0.122537,-0.29137 0.0093,-0.62672 0.296623,-0.75034 0.08164,-0.0351 0.17149,-0.049 0.259932,-0.0429 a 0.0660066,0.0660066 0 0 0 0.02325,-0.12868 c -0.0044,-10e-4 -0.009,-7.6e-4 -0.01344,-0.002 v -0.002 c -0.0019,-1.3e-4 -0.0037,1.2e-4 -0.0057,0 -0.06441,-0.0176 -0.130626,-0.0286 -0.197403,-0.0295 z m 0.330212,1.34307 a 0.63018215,0.6375127 0 0 1 -0.173116,0.0248 c 0.0579,-0.003 0.115964,-0.0111 0.173116,-0.0248 z" /><path
           id="path261-9-2"
           style="color:#000000;fill:url(#linearGradient7);fill-opacity:1;stroke-width:1.1993;stroke-linecap:square;stroke-linejoin:round;-inkscape-stroke:none;paint-order:markers fill stroke"
           d="m 75.166233,267.61735 a 0.06615262,0.06615262 0 0 0 -0.05116,0.0274 l -0.343648,0.44701 a 0.06615262,0.06615262 0 0 0 0.05271,0.10542 h 1.214913 2.222603 1.214913 a 0.06615262,0.06615262 0 0 0 0.05271,-0.10542 l -0.343648,-0.44701 a 0.06615262,0.06615262 0 0 0 -0.05271,-0.0274 h -1.035079 -1.896525 z" /><path
           id="path259-6-2"
           style="color:#000000;fill:url(#linearGradient8);fill-opacity:1;stroke-width:1.1993;stroke-linecap:square;stroke-linejoin:round;-inkscape-stroke:none;paint-order:markers fill stroke"
           d="m 74.824135,272.13077 a 0.06615262,0.06615262 0 0 0 -0.05271,0.10542 l 0.343648,0.44751 a 0.06615262,0.06615262 0 0 0 0.05116,0.0253 h 1.035079 1.896525 1.035079 a 0.06615262,0.06615262 0 0 0 0.05271,-0.0253 l 0.343648,-0.44751 a 0.06615262,0.06615262 0 0 0 -0.05271,-0.10542 h -1.214913 -2.222603 z" /></g></g></g><style
     type="text/css"
     id="style1">
	.st0{fill:#231F20;}
	.st1{fill:#0F1016;}
	.st2{fill:url(#SVGID_1_);}
	.st3{fill:url(#SVGID_2_);}
	.st4{fill:url(#SVGID_3_);}
	.st5{fill:url(#SVGID_4_);}
	.st6{clip-path:url(#SVGID_6_);fill:#231F20;}
</style></svg>
